<?xml version="1.0" encoding="utf-8"?>
<!-- Generator: Adobe Illustrator 23.0.1, SVG Export Plug-In . SVG Version: 6.00 Build 0)  -->
<svg version="1.1" id="Layer_1" xmlns="http://www.w3.org/2000/svg" xmlns:xlink="http://www.w3.org/1999/xlink" x="0px" y="0px"
	 viewBox="0 0 27 22" style="enable-background:new 0 0 27 22;" xml:space="preserve">
<style type="text/css">
	.st0{fill:#FF9E1B;}
</style>
<path class="st0" d="M16.1,1.9c0.3,0.1,0.5,0.2,0.8,0.3c0.5,0.3,0.7,0.8,0.7,1.2c0,1.9,0,3.7,0,5.5c0,1.1-0.5,2-1.3,2.7
	c-0.1,0.1-0.1,0.2-0.1,0.3c0,0.3,0,0.5,0,0.8c0.1,0,0.2,0,0.2,0c0.6,0,1.2,0,1.8,0c1.4,0.2,2.6,1.4,2.8,2.8c0,0.2,0,0.4,0,0.6
	c0,1,0,2.1,0,3.1c0,0.4-0.2,0.7-0.7,0.7c-4.6,0-9.3,0-13.9,0c-0.5,0-0.7-0.2-0.7-0.7c0-1,0-2.1,0-3.1c0-1.7,1.1-3,2.7-3.4
	c0.2,0,0.5-0.1,0.7-0.1c0.5,0,1,0,1.5,0c0-0.3,0-0.6,0-0.9c0,0,0-0.1-0.1-0.1c-0.8-0.8-1.3-1.9-1.3-3.1c0-1.7,0-3.4,0-5.1
	c0-0.8,0.5-1.5,1.3-1.7l0,0C12.6,1.9,14.4,1.9,16.1,1.9z M14,12.9c0,0.1,0,0.1,0,0.2c0,1.1,0,2.3,0,3.4c0,0.2,0,0.4-0.2,0.5
	c-0.2,0.2-0.4,0.2-0.6,0.1c-0.2-0.1-0.3-0.3-0.3-0.5c0-1.1,0-2.3,0-3.5c0-0.1,0-0.1,0-0.2c-0.4-0.1-0.8-0.2-1-0.3c0,0.3,0,0.5,0,0.8
	c0,0.4-0.2,0.6-0.6,0.6c-0.7,0-1.3,0-2,0c-1.3,0-2.3,1-2.3,2.3c0,0.8,0,1.7,0,2.5c0,0.1,0,0.1,0,0.2c0.6,0,1.1,0,1.8,0
	c0-0.8,0-1.6,0-2.3c0-0.2,0.1-0.3,0.2-0.5C9.1,16,9.4,16,9.6,16c0.2,0.1,0.3,0.3,0.4,0.5c0,0.7,0,1.4,0,2.1c0,0.1,0,0.2,0,0.3
	c2.4,0,4.9,0,7.4,0c0-0.1,0-0.1,0-0.2c0-0.7,0-1.4,0-2.1c0-0.4,0.2-0.6,0.6-0.6c0.3,0,0.6,0.3,0.6,0.6c0,0.8,0,1.4,0,2.2
	c0,0.1,0,0.1,0,0.2c0.6,0,1.1,0,1.8,0c0-0.1,0-0.1,0-0.2c0-0.8,0-1.7,0-2.5c0-1.3-1-2.3-2.3-2.3c-0.7,0-1.3,0-2.1,0
	c-0.4,0-0.6-0.2-0.6-0.6c0-0.3,0-0.5,0-0.8C14.7,12.7,14.4,12.8,14,12.9z M10.5,6.6c0,0.8,0,1.6,0,2.3c0,0.8,0.3,1.5,0.8,2.1
	c0,0,0.1,0.1,0.2,0.1c0-0.3,0-0.6,0-0.8c0-0.8,0.6-1.2,1.2-1.2c0.3,0,0.5,0,0.8,0c1.4-0.1,2,0.5,1.9,1.9c0,0.1,0,0.1,0,0.2
	c0,0,0,0,0.1,0c0,0,0,0,0.1-0.1c0.6-0.6,0.9-1.2,0.9-2.1c0-0.8,0-1.5,0-2.3V6.6C14.4,6.6,12.5,6.6,10.5,6.6z M16.5,5.5
	C16.5,5.4,16.5,5.4,16.5,5.5c0-0.7,0-1.3,0-1.9c0-0.4-0.2-0.6-0.6-0.6c-1.6,0-3.2,0-4.8,0c-0.4,0-0.6,0.2-0.6,0.6c0,0.6,0,1.1,0,1.8
	v0.1C12.5,5.5,14.4,5.5,16.5,5.5z M14.4,11L14.4,11c0-0.2,0-0.5,0-0.7c0-0.2-0.1-0.2-0.2-0.2c-0.5,0-0.8,0-1.3,0
	c-0.2,0-0.2,0.1-0.2,0.2c0,0.5,0,0.8,0,1.3c0,0.1,0.1,0.1,0.1,0.2c0.5,0.2,1,0.2,1.5,0l0.1-0.1C14.4,11.3,14.4,11.2,14.4,11z"/>
</svg>
