<?xml version="1.0" encoding="utf-8"?>
<!-- Generator: Adobe Illustrator 23.0.1, SVG Export Plug-In . SVG Version: 6.00 Build 0)  -->
<svg version="1.1" id="Layer_1" xmlns="http://www.w3.org/2000/svg" xmlns:xlink="http://www.w3.org/1999/xlink" x="0px" y="0px"
	 viewBox="0 0 27 22" style="enable-background:new 0 0 27 22;" xml:space="preserve">
<style type="text/css">
	.st0{fill:#FF9E1B;}
</style>
<g>
	<path class="st0" d="M7.8,15.7h11.6c0.2,0,0.3-0.1,0.3-0.3V3.8c0-0.2-0.1-0.3-0.3-0.3l0,0H7.8c-0.2,0-0.3,0.1-0.3,0.3v11.6
		C7.5,15.6,7.7,15.7,7.8,15.7z M8.1,4.2h11v11h-11V4.2z"/>
	<path class="st0" d="M21.5,17.3V2c0-0.2-0.1-0.3-0.3-0.3H7.7c-1.2,0-2.2,1-2.2,2.2v14.8l0,0c0,0.9,0.7,1.7,1.7,1.7h14
		c0.2,0,0.3-0.1,0.3-0.3V17.3L21.5,17.3L21.5,17.3z M7.8,2.3H21v14.8H7.3c-0.4,0-0.8,0.2-1.1,0.4V3.9C6.2,3,6.9,2.3,7.8,2.3L7.8,2.3
		z M7.3,19.8c-0.6,0-1.1-0.5-1.1-1.1l0,0l0,0c0-0.6,0.5-1.1,1.1-1.1H21v0.8H7.8c-0.2,0-0.3,0.1-0.3,0.3c0,0.2,0.1,0.3,0.3,0.3H21
		v0.8L7.3,19.8z"/>
	<path class="st0" d="M16.5,10.8c-0.3,0.1-0.7,0.2-1,0.2c-1.5,0-2.7-1.2-2.7-2.7c0-0.6,0.2-1.2,0.6-1.6c0.1-0.1,0.1-0.3,0-0.4
		c-0.1,0-0.1-0.1-0.2-0.1c-1.9,0.4-3.1,2.2-2.7,4.1s2.2,3.1,4.1,2.7c1-0.2,1.9-0.9,2.4-1.8c0.1-0.1,0-0.3-0.1-0.4
		C16.7,10.8,16.6,10.8,16.5,10.8L16.5,10.8z M13.8,12.5c-1.6,0-2.9-1.3-2.9-2.9c0-1.1,0.6-2.1,1.6-2.6c-0.2,0.4-0.3,0.9-0.3,1.3
		c0,1.8,1.5,3.3,3.3,3.2c0.2,0,0.3,0,0.5,0C15.4,12.2,14.6,12.5,13.8,12.5z"/>
	<path class="st0" d="M14.4,8.6l-0.3,0.8c0,0.1,0,0.3,0.2,0.3c0.1,0,0.2,0,0.2,0l0.7-0.5l0.7,0.5c0.1,0.1,0.3,0.1,0.4-0.1
		c0.1-0.1,0.1-0.2,0-0.2L16,8.6l0.7-0.5c0.1-0.1,0.2-0.3,0.1-0.4c-0.1-0.1-0.1-0.1-0.2-0.1h-0.8l-0.3-0.8c0-0.1-0.2-0.2-0.3-0.2
		c-0.1,0-0.1,0.1-0.2,0.2l-0.3,0.8h-0.8c-0.2,0-0.3,0.1-0.3,0.3c0,0.1,0,0.2,0.1,0.2L14.4,8.6z M14.9,8.1c0.1,0,0.2-0.1,0.3-0.2
		l0.1-0.2l0.1,0.2c0,0.1,0.1,0.2,0.3,0.2h0.2l-0.1,0.1c-0.1,0.1-0.1,0.2-0.1,0.3l0.1,0.2l-0.1-0.1c-0.1-0.1-0.2-0.1-0.3,0l-0.1,0.1
		l0.1-0.2c0-0.1,0-0.2-0.1-0.3l-0.1-0.1H14.9z"/>
</g>
</svg>
