<?xml version="1.0" encoding="utf-8"?>
<!-- Generator: Adobe Illustrator 23.0.1, SVG Export Plug-In . SVG Version: 6.00 Build 0)  -->
<svg version="1.1" id="Layer_1" xmlns="http://www.w3.org/2000/svg" xmlns:xlink="http://www.w3.org/1999/xlink" x="0px" y="0px"
	 viewBox="0 0 27 22" style="enable-background:new 0 0 27 22;" xml:space="preserve">
<style type="text/css">
	.st0{fill:#FF9E1B;}
</style>
<g>
	<path class="st0" d="M22.8,4.6v13.5h-8.4v0.3c0,0.5-0.4,1-1,1c-0.5,0-1-0.4-1-1v-0.3H4.1V4h0.6v13.5h17.4v-10h-0.6v9.3h-7.7V2.7
		h1.6V2.1H4.7v1.3H3.4v15.5h8.4c0.1,0.7,0.8,1.3,1.6,1.3c0.8,0,1.4-0.6,1.6-1.3h8.4V4.6H22.8z M13.1,2.7v14.2H5.4c0,0,0-14.2,0-14.2
		H13.1z"/>
	<path class="st0" d="M12.5,3.3H6v5.2h6.4V3.3z M11.8,7.8H6.7V4h5.2V7.8z"/>
	<rect x="11.8" y="15.6" class="st0" width="0.6" height="0.6"/>
	<rect x="6" y="15.6" class="st0" width="5.2" height="0.6"/>
	<rect x="6" y="14.3" class="st0" width="6.4" height="0.6"/>
	<rect x="6" y="13" class="st0" width="6.4" height="0.6"/>
	<rect x="6" y="11.7" class="st0" width="6.4" height="0.6"/>
	<rect x="7.3" y="10.4" class="st0" width="5.2" height="0.6"/>
	<rect x="6" y="10.4" class="st0" width="0.6" height="0.6"/>
	<rect x="6" y="9.1" class="st0" width="6.4" height="0.6"/>
	<rect x="20.2" y="15.6" class="st0" width="0.6" height="0.6"/>
	<rect x="14.4" y="15.6" class="st0" width="5.2" height="0.6"/>
	<rect x="14.4" y="14.3" class="st0" width="6.4" height="0.6"/>
	<rect x="14.4" y="13" class="st0" width="6.4" height="0.6"/>
	<rect x="14.4" y="11.7" class="st0" width="6.4" height="0.6"/>
	<rect x="15.7" y="10.4" class="st0" width="5.2" height="0.6"/>
	<rect x="14.4" y="10.4" class="st0" width="0.6" height="0.6"/>
	<rect x="14.4" y="9.1" class="st0" width="6.4" height="0.6"/>
	<rect x="14.4" y="8" class="st0" width="6.4" height="0.6"/>
	<rect x="14.4" y="6.9" class="st0" width="6.4" height="0.6"/>
	<rect x="14.4" y="5.8" class="st0" width="6.4" height="0.6"/>
	<rect x="14.4" y="4.7" class="st0" width="6.4" height="0.6"/>
	<rect x="14.4" y="3.5" class="st0" width="6.4" height="0.6"/>
</g>
</svg>
