<?xml version="1.0" encoding="utf-8"?>
<!-- Generator: Adobe Illustrator 23.0.1, SVG Export Plug-In . SVG Version: 6.00 Build 0)  -->
<svg version="1.1" id="Layer_1" xmlns="http://www.w3.org/2000/svg" xmlns:xlink="http://www.w3.org/1999/xlink" x="0px" y="0px"
	 viewBox="0 0 27 22" style="enable-background:new 0 0 27 22;" xml:space="preserve">
<style type="text/css">
	.st0{fill:#FF9E1B;}
</style>
<g>
	<path class="st0" d="M22.8,10.7l-2.5-2.5V4.7c0-0.3-0.3-0.6-0.6-0.6h-3.5l-2.5-2.5c-0.1-0.1-0.2-0.2-0.4-0.2
		c-0.1,0-0.3,0.1-0.4,0.2l-2.5,2.5H7c-0.3,0-0.6,0.3-0.6,0.6v3.5l-2.5,2.5c-0.2,0.2-0.2,0.6,0,0.8L6.4,14v3.5c0,0.3,0.3,0.6,0.6,0.6
		h3.5l2.5,2.5c0.1,0.1,0.2,0.2,0.4,0.2s0.3-0.1,0.4-0.2l2.5-2.5h3.5c0.3,0,0.6-0.3,0.6-0.6V14l2.5-2.5c0.1-0.1,0.2-0.2,0.2-0.4
		S22.9,10.8,22.8,10.7z M19.4,13.4c-0.1,0.1-0.2,0.2-0.2,0.4V17H16c-0.1,0-0.3,0.1-0.4,0.2l-2.2,2.2l-2.2-2.2C11,17,10.9,17,10.7,17
		H7.5v-3.2c0-0.1-0.1-0.3-0.2-0.4l-2.2-2.2l2.2-2.2c0.1-0.1,0.2-0.2,0.2-0.4V5.3h3.2c0.1,0,0.3-0.1,0.4-0.2l2.2-2.2l2.2,2.2
		c0.1,0.1,0.2,0.2,0.4,0.2h3.2v3.2c0,0.1,0.1,0.3,0.2,0.4l2.2,2.2L19.4,13.4z"/>
	<path class="st0" d="M11.9,8.1C12,8.1,12,8,11.9,8.1C12,8,12,8,11.9,8.1l-0.3-1c0,0,0,0,0,0c0,0,0,0,0,0c-0.1,0-0.1,0.1-0.2,0.1
		c-0.1,0.1-0.3,0.2-0.4,0.3c0,0,0,0,0,0.1c0.3,0.6,0.2,1.6,0.1,2.4c0,0.2,0,0.4-0.1,0.5c0,0.6-0.5,0.8-0.9,0.8
		c-0.3,0-0.6-0.1-0.7-0.3c-0.1-0.2-0.1-0.5,0.1-0.9c0,0,0,0,0-0.1c0,0,0,0-0.1,0c-0.1,0-0.7,0.8-0.7,1.4c0,0.3,0.1,0.7,0.8,0.8
		c0.1,0,0.1,0,0.2,0c0.7,0,1.7-0.3,1.8-1.2c0-0.1,0-0.3,0-0.6C11.5,9.6,11.6,8.1,11.9,8.1z"/>
	<path class="st0" d="M18.4,10.5c-0.3,0-0.6-0.2-0.8-0.4c-0.1-0.1-0.2-0.2-0.3-0.2c-0.2-0.2-0.5-0.5-0.8-0.6c-0.1,0-0.1-0.1-0.2-0.1
		c-0.4,0-0.8,0.5-0.8,0.8c0,0.1,0,0.2,0.2,0.3c0,0,0,0,0.1,0c0.1-0.2,0.2-0.3,0.4-0.3c0.2,0,0.3,0.2,0.5,0.3
		c0.1,0.1,0.2,0.1,0.2,0.2c-0.3,0-0.6,0.1-0.8,0.1c-0.5,0-1-0.1-1-0.4C15,9.6,15.1,9,15.2,8.4c0.1-0.3,0.1-0.7,0.1-1c0,0,0,0,0-0.1
		c0,0,0,0-0.1,0c-0.6,0.3-0.8,0.9-1,1.4c-0.1,0.4-0.3,0.8-0.6,1.1c-0.2-1.1-0.6-1.9-1.3-2.6c0,0,0,0-0.1,0c0,0,0,0,0,0
		c0,0.1,0,0.2-0.1,0.3c-0.1,0.5-0.3,1,0.3,1.3c0,0,0,0,0.1,0c0,0,0,0,0,0l0-0.1c0.3,0.5,0.5,0.9,0.6,1.4c-0.2,0.1-0.4,0.3-0.6,0.4
		c-0.3,0.1-0.6,0.3-0.7,0.5c0,0,0,0.1,0,0.1c0.2,0.2,0.4,0.4,0.7,0.4c0.8,0,1.6-1.4,1.9-2.2c0,0,0,0,0,0c-0.1,0.8-0.3,1.7,0.8,2
		c0,0,0,0,0,0c0.1,0,0.2,0,0.3,0h0C16.1,11.4,18.2,11.4,18.4,10.5C18.5,10.6,18.5,10.6,18.4,10.5C18.5,10.5,18.4,10.5,18.4,10.5z"/>
	<polygon class="st0" points="11,13.2 10.5,13.2 10.5,12.5 10.1,12.5 10.1,14.3 10.5,14.3 10.5,13.5 11,13.5 11,14.3 11.4,14.3 
		11.4,12.5 11,12.5 	"/>
	<path class="st0" d="M12,12.5l-0.4,1.8h0.4l0.1-0.4h0.4l0.1,0.4h0.4l-0.4-1.8H12z M12.1,13.6l0.1-0.7l0.1,0.7H12.1z"/>
	<polygon class="st0" points="13.4,12.5 13.1,12.5 13.1,14.3 14.1,14.3 14.1,14 13.4,14 	"/>
	<path class="st0" d="M14.6,12.5l-0.4,1.8h0.4l0.1-0.4h0.4l0.1,0.4h0.4l-0.4-1.8H14.6z M14.7,13.6l0.1-0.7l0.1,0.7H14.7z"/>
	<polygon class="st0" points="16.1,12.5 15.7,12.5 15.7,14.3 16.7,14.3 16.7,14 16.1,14 	"/>
</g>
</svg>
