<?xml version="1.0" encoding="utf-8"?>
<!-- Generator: Adobe Illustrator 23.0.1, SVG Export Plug-In . SVG Version: 6.00 Build 0)  -->
<svg version="1.1" id="Layer_1" xmlns="http://www.w3.org/2000/svg" xmlns:xlink="http://www.w3.org/1999/xlink" x="0px" y="0px"
	 viewBox="0 0 27 22" style="enable-background:new 0 0 27 22;" xml:space="preserve">
<style type="text/css">
	.st0{fill:#FF9E1B;}
</style>
<path class="st0" d="M15,20.6c-1.4,0.1-2.9-0.1-4.2-0.6l0.2-0.6c1.3,0.5,2.6,0.6,3.9,0.5c1-0.1,1.9-0.3,2.8-0.7
	c-4.6,0.2-8.5-3.2-8.9-7.8c-0.1-1.2,0-2.3,0.4-3.5c0.4-1.1,1-2.1,1.7-2.9l0.5,0.4c-0.7,0.8-1.3,1.7-1.6,2.7c-0.4,1-0.5,2.1-0.4,3.2
	c0.4,4.3,4.3,7.5,8.7,7.2c0.4,0,0.8-0.1,1.2-0.2c0.2,0,0.3,0,0.4,0.2c0.1,0.1,0,0.3-0.1,0.4C18.3,19.9,16.7,20.4,15,20.6L15,20.6z"
	/>
<path class="st0" d="M10.1,19.7C8.6,19,7.2,18,6.2,16.6c-1-1.4-1.6-3-1.8-4.8C4,6.5,8,1.9,13.4,1.4c1.7-0.1,3.4,0.1,4.9,0.8
	c0.1,0.1,0.2,0.2,0.2,0.4c0,0.2-0.2,0.3-0.3,0.2c-0.4,0-0.8,0-1.2,0c-1.8,0.2-3.4,0.9-4.8,2.1l-0.4-0.5c1.3-1.2,2.9-1.9,4.7-2.2
	c-1-0.2-1.9-0.3-2.9-0.2c-5,0.4-8.8,4.8-8.3,9.7c0.1,1.6,0.7,3.1,1.7,4.4c0.9,1.3,2.2,2.3,3.6,2.9L10.1,19.7z"/>
<path class="st0" d="M19.7,10.9c-0.1,0-0.1,0-0.2,0l-1.7-0.7l-1.6,1c-0.1,0.1-0.2,0.1-0.3,0c-0.1-0.1-0.2-0.2-0.2-0.3L15.9,9
	l-1.4-1.2c-0.1-0.1-0.1-0.2-0.1-0.3c0-0.1,0.1-0.2,0.2-0.2l1.8-0.4l0.7-1.7c0-0.1,0.1-0.2,0.3-0.2c0.1,0,0.2,0,0.3,0.2l1,1.6
	l1.8,0.1c0.1,0,0.2,0.1,0.3,0.2c0,0.1,0,0.2-0.1,0.3l-1.2,1.4l0.5,1.8c0,0.1,0,0.2-0.1,0.3C19.8,10.8,19.7,10.9,19.7,10.9L19.7,10.9
	z M17.7,9.5c0.1,0,0.1,0,0.2,0l1.3,0.5l-0.3-1.3c0-0.1,0-0.2,0.1-0.3l0.9-1l-1.4-0.1c-0.1,0-0.2-0.1-0.3-0.2L17.5,6L17,7.2
	c0,0.1-0.1,0.2-0.2,0.2l-1.3,0.3l1.1,0.9c0.1,0.1,0.1,0.2,0.1,0.3l-0.1,1.4l1.2-0.7C17.6,9.5,17.7,9.5,17.7,9.5L17.7,9.5z"/>
</svg>
